<svg version="1.1" id="Layer_1" xmlns="http://www.w3.org/2000/svg" xmlns:xlink="http://www.w3.org/1999/xlink" x="0px" y="0px" width="100%" viewBox="0 0 1536 1024" enable-background="new 0 0 1536 1024" xml:space="preserve">

<path fill="#429B1B" opacity="1.000000" stroke="none" d="
M347.979492,558.373657 
	C394.316528,563.989441 433.203308,546.115173 469.042633,519.411133 
	C485.247009,507.337158 499.320099,492.917358 510.828033,476.178162 
	C512.968811,473.064301 514.748840,469.702393 516.945618,466.037354 
	C509.940430,460.810394 505.035126,468.656128 497.796967,468.102234 
	C499.934662,465.744934 501.297333,464.058685 502.845917,462.565125 
	C511.298065,454.413300 520.650208,446.999542 527.973511,437.941895 
	C532.747620,432.037170 534.596313,423.767212 538.204712,415.531616 
	C538.204712,424.319977 538.571594,432.538696 538.071411,440.704346 
	C537.755676,445.860046 535.963867,450.907745 535.147095,456.053558 
	C532.223511,474.471405 523.902771,490.551697 513.490356,505.630768 
	C496.610535,530.075989 474.309296,548.363647 448.257904,562.362915 
	C423.704498,575.557190 397.595917,582.684570 369.713776,583.085266 
	C365.403381,583.147217 361.083527,582.548889 356.438599,581.712463 
	C355.796539,579.018921 355.873566,576.714905 355.096954,574.747986 
	C352.912537,569.215637 350.376740,563.822021 347.979492,558.373657 
z" data-index="1"></path>
<path fill="#429B1B" opacity="1.000000" stroke="none" d="
M516.222412,378.793976 
	C534.162842,400.866425 524.142395,430.244019 501.978668,439.592285 
	C487.315765,445.776825 473.120087,444.215790 460.779694,434.148468 
	C447.506378,423.320099 443.195984,408.732178 448.136627,392.489594 
	C452.868073,376.934692 463.757996,367.522614 480.361755,365.198944 
	C494.756653,363.184418 506.197937,368.529999 516.222412,378.793976 
M488.118744,388.478607 
	C493.057526,385.940857 493.022308,391.268555 495.554565,393.283539 
	C497.149933,392.475769 498.861633,391.609131 500.475189,390.792206 
	C498.706696,384.560364 494.173096,382.184387 488.635223,381.154449 
	C488.082825,378.523926 489.865906,374.092010 484.293518,375.729218 
	C484.087341,377.644531 483.880859,379.562439 483.686218,381.370605 
	C475.022217,383.573242 471.990143,386.873108 471.168121,394.871552 
	C470.609467,400.307343 474.291443,403.519257 478.404236,404.824738 
	C484.073303,406.624176 484.718140,410.106995 484.212524,414.921356 
	C484.009674,416.852936 484.179138,418.823639 484.179138,420.776520 
	C483.717377,421.115112 483.255615,421.453735 482.793854,421.792328 
	C480.138519,419.396271 477.483154,417.000214 474.675964,414.467133 
	C470.082764,416.335205 469.193115,419.629700 473.324066,422.805115 
	C476.239288,425.046021 479.890961,426.328949 483.416138,428.143677 
	C483.668091,430.112091 483.957642,432.374420 484.247192,434.636749 
	C484.791687,434.841339 485.336182,435.045929 485.880676,435.250519 
	C487.137695,432.702789 488.394714,430.155029 489.947845,427.007111 
	C495.970093,425.723083 501.048492,422.314148 501.604279,414.551453 
	C502.285522,405.035919 494.234009,403.608429 488.076416,400.382416 
	C488.076416,396.600372 488.076416,392.949371 488.118744,388.478607 
z" data-index="2"></path>
<path fill="#077EBC" opacity="1.000000" stroke="none" d="
M408.153442,480.999817 
	C408.149841,462.520294 408.149841,444.540771 408.149841,425.606445 
	C413.300171,425.606445 418.200806,425.588348 423.101227,425.611786 
	C427.599213,425.633270 432.105743,425.891815 436.592224,425.687897 
	C440.505005,425.510101 441.846558,427.009125 441.829620,430.912476 
	C441.747345,449.904877 441.890198,468.898224 441.936157,487.891266 
	C441.964355,499.553741 441.905731,511.216797 442.016632,522.878357 
	C442.040985,525.437073 441.603516,527.074646 438.930664,528.287659 
	C428.972595,532.806824 419.159332,537.644958 408.157013,542.906067 
	C408.157013,521.559998 408.157013,501.529907 408.153442,480.999817 
z" data-index="3"></path>
<path fill="#429B1B" opacity="1.000000" stroke="none" d="
M1179.930908,533.131470 
	C1176.044434,545.498901 1176.044434,545.500061 1163.554199,545.181335 
	C1162.740967,545.160583 1161.928711,545.099915 1161.044800,545.054077 
	C1153.812500,524.763855 1146.638306,504.636688 1139.456421,484.487762 
	C1140.139893,484.279968 1140.450684,484.112244 1140.767700,484.099670 
	C1155.294800,483.522797 1155.276733,483.530121 1159.626587,497.312012 
	C1162.528809,506.507324 1165.492310,515.683411 1168.841309,526.159912 
	C1169.943359,522.840088 1170.716064,520.518250 1171.484985,518.195129 
	C1174.776733,508.248901 1178.200073,498.343140 1181.281128,488.332092 
	C1182.258301,485.157288 1183.476562,483.551910 1187.079712,484.031250 
	C1190.012573,484.421417 1193.038574,484.110504 1196.275513,484.110504 
	C1200.801270,497.783783 1205.271118,511.287842 1210.166992,526.079407 
	C1214.911987,511.377472 1219.239136,497.970184 1223.644409,484.320435 
	C1228.760254,484.320435 1233.874023,484.320435 1239.713257,484.320435 
	C1232.480469,504.616089 1225.324219,524.697021 1218.094604,544.983582 
	C1213.244507,544.983582 1208.454468,544.983582 1203.054810,544.983582 
	C1198.697266,532.207153 1194.221558,519.083923 1189.264038,504.548340 
	C1185.900757,514.822754 1182.967651,523.783508 1179.930908,533.131470 
z" data-index="4"></path>
<path fill="#077EBC" opacity="1.000000" stroke="none" d="
M527.912476,517.523743 
	C525.183838,522.351135 522.983215,527.589233 519.615112,531.919189 
	C512.897034,540.555908 505.469177,548.637390 498.507996,557.091003 
	C497.271881,558.592163 496.357666,560.741760 496.197083,562.667175 
	C495.838531,566.967163 495.527863,571.391418 496.151215,575.624634 
	C497.071228,581.872437 493.611298,584.592468 488.850037,586.946594 
	C474.420502,594.081116 459.159454,598.645203 443.311279,600.943665 
	C431.841400,602.607178 420.227570,603.277893 408.594940,603.976196 
	C415.841766,602.284119 416.943481,600.935608 416.960968,593.141663 
	C416.965027,591.335388 416.899109,589.528992 416.865417,587.722656 
	C427.064911,583.428589 437.507050,579.627441 447.418549,574.748291 
	C477.401550,559.988708 502.836975,539.584412 523.212646,512.234680 
	C525.185730,513.872986 526.549072,515.698364 527.912476,517.523743 
z" data-index="5"></path>
<path fill="#173857" opacity="1.000000" stroke="none" d="
M773.418823,525.528809 
	C767.586121,503.861694 778.966614,485.438141 799.616577,482.745453 
	C808.763794,481.552704 816.507019,484.673218 823.368225,492.143219 
	C823.633423,488.930847 823.827087,486.584412 824.027100,484.161621 
	C828.985107,484.161621 833.758179,484.161621 838.791748,484.161621 
	C838.791748,504.432800 838.791748,524.501831 838.791748,544.923645 
	C834.079041,544.923645 829.343567,544.923645 824.256287,544.923645 
	C823.990540,543.145813 823.692993,541.154602 823.275269,538.359741 
	C813.511841,546.876160 802.989380,549.392090 791.433411,544.840576 
	C782.627502,541.372131 776.577271,534.987122 773.418823,525.528809 
M799.720215,532.233398 
	C807.911194,534.671570 815.538330,532.171143 820.351807,525.469543 
	C825.060913,518.913452 825.037048,510.055298 820.293518,503.699188 
	C815.568726,497.368256 807.150940,494.738953 799.423462,497.180450 
	C792.576416,499.343781 787.367249,506.060272 787.178040,514.231079 
	C786.983521,522.631042 791.021973,528.740784 799.720215,532.233398 
z" data-index="6"></path>
<path fill="#173857" opacity="1.000000" stroke="none" d="
M916.913452,545.189148 
	C914.010315,545.190552 911.554504,545.190552 908.841248,545.190552 
	C908.841248,515.871216 908.841248,486.965088 908.841248,457.798035 
	C913.706299,457.798035 918.446411,457.798035 923.694214,457.798035 
	C923.694214,468.859680 923.694214,479.727722 923.694214,491.762543 
	C931.530518,482.832245 940.393188,480.994080 950.459412,483.772369 
	C960.272095,486.480652 966.238953,493.872925 966.702637,505.690857 
	C967.211060,518.650696 966.818359,531.645813 966.818359,544.944214 
	C961.698975,544.944214 956.788147,544.944214 951.223816,544.944214 
	C951.223816,533.335693 951.330383,521.752319 951.177856,510.172394 
	C951.104065,504.572540 949.346130,499.633942 943.696167,497.146790 
	C938.274780,494.760284 933.193115,495.788849 928.776489,499.427551 
	C924.936157,502.591461 923.698608,507.007812 923.737854,511.927765 
	C923.825256,522.876038 923.765137,533.825562 923.765137,545.187744 
	C921.296570,545.187744 919.328674,545.187744 916.913452,545.189148 
z" data-index="7"></path>
<path fill="#077EBC" opacity="1.000000" stroke="none" d="
M398.003662,476.224823 
	C398.007538,499.348907 398.007538,521.996948 398.007538,545.777466 
	C387.317291,547.266663 376.605164,548.758911 365.414551,550.317810 
	C365.414551,523.119019 365.414551,496.915039 365.414551,469.973267 
	C375.473846,469.973267 385.226349,469.840332 394.972015,470.040436 
	C398.729858,470.117584 397.861572,473.367401 398.003662,476.224823 
z" data-index="8"></path>
<path fill="#429B1B" opacity="1.000000" stroke="none" d="
M1031.946045,501.147156 
	C1031.947144,504.614075 1031.947144,507.603882 1031.947144,511.263245 
	C1020.847717,511.263245 1009.964172,511.263245 998.684814,511.263245 
	C998.684814,522.829651 998.684814,533.735657 998.684814,544.962280 
	C993.360291,544.962280 988.428528,544.962280 983.058960,544.962280 
	C983.058960,516.912598 983.058960,488.710083 983.058960,460.260437 
	C1000.607788,460.260437 1018.032837,460.260437 1035.769897,460.260437 
	C1035.769897,464.858398 1035.769897,469.277527 1035.769897,474.471252 
	C1023.460205,474.471252 1011.078369,474.471252 998.652710,474.471252 
	C998.652710,482.529694 998.652710,489.816284 998.652710,497.854767 
	C1008.581116,497.854767 1018.335999,497.857635 1028.090942,497.852386 
	C1030.073975,497.851318 1032.358643,497.406647 1031.946045,501.147156 
z" data-index="9"></path>
<path fill="#429B1B" opacity="1.000000" stroke="none" d="
M1137.809814,514.023254 
	C1136.244507,538.941223 1113.859619,553.518188 1091.391724,544.696167 
	C1077.942871,539.415466 1069.775024,526.151367 1071.190674,511.890564 
	C1072.634521,497.345490 1083.859009,485.441437 1098.075928,482.993195 
	C1118.107178,479.543640 1136.309570,492.632263 1137.809814,514.023254 
M1104.424561,496.098969 
	C1092.110474,497.009216 1085.480469,505.086639 1086.952026,517.652832 
	C1087.797729,524.874329 1091.615112,530.048279 1098.677734,532.226990 
	C1105.526489,534.339661 1111.899048,533.039124 1116.939819,527.812195 
	C1122.072632,522.489990 1123.380493,516.045044 1121.202026,508.936340 
	C1118.785767,501.052399 1113.236084,497.070984 1104.424561,496.098969 
z" data-index="10"></path>
<path fill="#173857" opacity="1.000000" stroke="none" d="
M654.961304,500.002686 
	C654.976013,506.333954 654.960999,512.166260 655.002747,517.998108 
	C655.072693,527.757935 659.512939,533.089478 667.627075,533.216064 
	C676.035950,533.347351 682.889221,526.543701 683.004333,517.611084 
	C683.145752,506.632660 683.037964,495.650970 683.037964,484.286682 
	C688.195740,484.286682 693.072632,484.286682 698.232910,484.286682 
	C698.232910,504.411530 698.232910,524.532288 698.232910,544.975342 
	C693.382446,544.975342 688.654053,544.975342 683.663879,544.975342 
	C683.444458,542.656067 683.233276,540.423462 683.005066,538.011230 
	C672.786560,547.365540 662.063049,549.410767 652.050171,544.288635 
	C643.858032,540.098022 640.375488,532.757629 639.993713,524.337219 
	C639.391296,511.050659 639.833435,497.716705 639.833435,484.151306 
	C644.829041,484.151306 649.586853,484.151306 654.957031,484.151306 
	C654.957031,489.291046 654.957031,494.397278 654.961304,500.002686 
z" data-index="11"></path>
<path fill="#173857" opacity="1.000000" stroke="none" d="
M886.947083,485.012573 
	C890.527100,487.061462 893.735718,489.005707 897.314514,491.174225 
	C893.903320,494.813751 891.085205,497.820557 887.963196,501.151581 
	C883.234314,495.743683 877.684814,492.658813 870.801941,495.088806 
	C868.679871,495.838013 866.190979,498.302460 865.817810,500.338501 
	C865.542847,501.838837 868.075806,504.746490 869.986938,505.574402 
	C874.374573,507.475128 879.149597,508.478638 883.762085,509.863922 
	C893.180542,512.692566 898.517639,518.741211 898.802307,526.888672 
	C899.081848,534.888306 893.479004,542.102905 884.549805,545.241333 
	C871.659241,549.772095 857.181702,545.933167 848.122681,535.368896 
	C850.824402,532.384766 853.561340,529.361755 855.790100,526.900024 
	C860.846985,529.405273 865.455811,532.289001 870.471069,533.932007 
	C873.174622,534.817627 876.730469,534.056885 879.599915,533.117126 
	C881.282532,532.566040 883.451233,530.203430 883.451050,528.655945 
	C883.450806,526.781555 881.809143,524.237549 880.126343,523.188354 
	C877.517090,521.561401 874.258667,520.991028 871.300354,519.904724 
	C867.107727,518.365112 862.621582,517.305420 858.818542,515.085327 
	C848.176208,508.872528 847.854126,494.292267 858.048645,487.313324 
	C867.039124,481.158630 876.691833,481.275879 886.947083,485.012573 
z" data-index="12"></path>
<path fill="#173857" opacity="1.000000" stroke="none" d="
M727.938538,526.967163 
	C737.312134,535.962097 746.677734,535.305237 756.336182,525.087952 
	C759.960449,527.842102 763.605774,530.612244 767.249817,533.381409 
	C757.871521,545.737366 743.724243,550.000916 729.342896,545.024353 
	C716.653564,540.633362 707.985779,528.538086 708.109619,515.394958 
	C708.248352,500.675171 716.649963,488.572083 729.636902,484.383179 
	C744.070801,479.727570 757.788269,483.934967 766.604797,495.974457 
	C762.996948,498.528809 759.394226,501.079468 755.853027,503.586609 
	C746.710449,494.772308 738.090515,493.845703 729.904907,500.456268 
	C723.461060,505.660217 720.980713,518.859314 727.938538,526.967163 
z" data-index="13"></path>
<path fill="#173857" opacity="1.000000" stroke="none" d="
M582.080139,538.922668 
	C582.079834,512.475281 582.079834,486.517700 582.079834,460.251282 
	C587.352356,460.251282 592.414246,460.251282 597.977661,460.251282 
	C597.977661,483.679749 597.977661,507.063660 597.977661,530.835815 
	C609.550232,530.835815 620.639282,530.835815 632.020386,530.835815 
	C632.020386,535.664551 632.020386,540.107178 632.020386,544.896851 
	C615.678955,544.896851 599.264038,544.896851 582.080444,544.896851 
	C582.080444,543.209900 582.080444,541.311157 582.080139,538.922668 
z" data-index="14"></path>
<path fill="#429B1B" opacity="1.000000" stroke="none" d="
M1048.105103,457.765076 
	C1052.566895,457.748291 1056.538696,457.748291 1060.868042,457.748291 
	C1060.868042,486.827118 1060.868042,515.682495 1060.868042,544.889160 
	C1056.093872,544.889160 1051.229980,544.889160 1045.876709,544.889160 
	C1045.876709,543.053650 1045.876587,541.275391 1045.876709,539.497192 
	C1045.879761,513.717957 1045.854858,487.938568 1045.959839,462.159760 
	C1045.965698,460.698242 1047.038696,459.241058 1048.105103,457.765076 
z" data-index="15"></path>
<path fill="#077EBC" opacity="1.000000" stroke="none" d="
M324.135498,513.185364 
	C333.256744,512.882812 342.059387,512.732605 350.851776,512.966614 
	C352.230286,513.003357 354.712982,514.755188 354.739136,515.764404 
	C355.022186,526.688660 354.915863,537.622925 354.915863,550.264893 
	C344.454895,546.449036 334.893646,543.045898 325.433441,539.381958 
	C324.471741,539.009460 323.580200,537.072693 323.569550,535.853821 
	C323.504456,528.391907 323.702911,520.927612 324.135498,513.185364 
z" data-index="16"></path>
<path fill="#173857" opacity="1.000000" stroke="none" d="
M453.141907,463.928955 
	C454.315918,463.417450 455.482910,462.481567 456.665009,462.462097 
	C465.466736,462.316895 474.271484,462.353363 483.696228,462.556091 
	C484.317169,462.779327 484.757385,462.919098 484.757385,462.919098 
	C484.757385,462.919098 485.211548,462.834839 485.211548,462.834839 
	C485.825775,464.206696 486.940002,465.567688 486.969971,466.952209 
	C487.121155,473.932922 487.109589,480.923859 486.867279,487.901245 
	C486.811554,489.505127 486.042603,491.530823 484.889771,492.579987 
	C474.847748,501.719604 464.643555,510.681061 454.487518,519.695435 
	C453.996765,519.448730 453.505981,519.202087 453.015228,518.955383 
	C453.015228,513.289185 453.015228,507.623016 453.501251,501.483643 
	C463.281433,500.999451 464.845673,500.747742 466.232880,493.022064 
	C467.790009,484.349823 467.571381,475.345154 467.829285,466.476501 
	C467.852417,465.680420 465.758636,464.209381 464.556427,464.104828 
	C460.775055,463.776062 456.950043,463.949799 453.141907,463.928955 
z" data-index="17"></path>
<path fill="#173857" opacity="1.000000" stroke="none" d="
M347.592529,558.232178 
	C350.376740,563.822021 352.912537,569.215637 355.096954,574.747986 
	C355.873566,576.714905 355.796539,579.018921 356.083771,581.517273 
	C342.602875,580.136719 330.040833,576.087646 319.018738,566.991577 
	C316.306641,558.914978 314.259277,551.463806 317.023315,543.620789 
	C325.584412,551.572205 335.722076,556.235107 347.592529,558.232178 
z" data-index="18"></path>
<path fill="#077EBC" opacity="1.000000" stroke="none" d="
M316.902283,543.328003 
	C314.259277,551.463806 316.306641,558.914978 318.821960,566.711853 
	C308.412659,560.235046 302.372101,550.300232 299.745941,538.488831 
	C294.450439,514.671570 303.478668,495.311523 319.534180,478.395966 
	C319.728699,478.190979 320.142578,478.194214 321.710449,477.721191 
	C319.414551,481.288757 317.571472,483.996063 315.886078,486.798218 
	C307.801880,500.238800 303.544647,514.441711 309.057037,529.886597 
	C310.735504,534.589355 314.157654,538.669739 316.902283,543.328003 
z" data-index="19"></path>
<path fill="#429B1B" opacity="1.000000" stroke="none" d="
M387.723206,603.741882 
	C363.097351,603.532043 339.329193,599.984436 318.560913,585.378418 
	C314.429718,582.473022 310.747314,578.929382 307.206848,574.860779 
	C330.335449,592.201782 356.605164,595.832336 384.603210,594.222778 
	C385.869385,597.758972 386.796295,600.750427 387.723206,603.741882 
z" data-index="20"></path>
<path fill="#077EBC" opacity="1.000000" stroke="none" d="
M453.047058,464.380707 
	C456.950043,463.949799 460.775055,463.776062 464.556427,464.104828 
	C465.758636,464.209381 467.852417,465.680420 467.829285,466.476501 
	C467.571381,475.345154 467.790009,484.349823 466.232880,493.022064 
	C464.845673,500.747742 463.281433,500.999451 453.550476,501.019684 
	C453.046600,499.613281 452.979553,498.197632 453.268158,496.105347 
	C453.448242,493.312317 453.272705,491.195892 453.097137,489.079498 
	C453.032745,488.279388 452.968384,487.479279 453.271515,485.993164 
	C453.459625,481.236969 453.280182,477.166809 453.100769,473.096649 
	C453.051270,470.341919 453.001740,467.587189 453.047058,464.380707 
z" data-index="21"></path>
<path fill="#173857" opacity="1.000000" stroke="none" d="
M388.201599,603.888123 
	C386.796295,600.750427 385.869385,597.758972 384.935120,594.366211 
	C395.306580,591.929138 405.685425,589.893433 416.464844,587.790222 
	C416.899109,589.528992 416.965027,591.335388 416.960968,593.141663 
	C416.943481,600.935608 415.841766,602.284119 408.246643,603.833435 
	C401.547546,604.082092 395.113800,604.058228 388.201599,603.888123 
z" data-index="22"></path>
<path fill="#429B1B" opacity="1.000000" stroke="none" d="
M533.284241,496.012878 
	C542.055786,478.689362 548.097656,460.663116 547.847412,440.976685 
	C551.281494,461.459991 546.591003,480.697235 538.169067,499.334656 
	C536.318665,498.174774 534.801453,497.093811 533.284241,496.012878 
z" data-index="23"></path>
<path fill="#173857" opacity="1.000000" stroke="none" d="
M533.072327,496.288818 
	C534.801453,497.093811 536.318665,498.174774 537.914062,499.560547 
	C534.799194,505.627045 531.606262,511.388763 528.162903,517.337097 
	C526.549072,515.698364 525.185730,513.872986 523.483093,512.030090 
	C526.382690,506.863281 529.621521,501.713989 533.072327,496.288818 
z" data-index="24"></path>
<path fill="#173857" opacity="1.000000" stroke="none" d="
M453.049377,473.548340 
	C453.280182,477.166809 453.459625,481.236969 453.369873,485.601135 
	C453.066467,481.930115 453.032227,477.965088 453.049377,473.548340 
z" data-index="25"></path>
<path fill="#173857" opacity="1.000000" stroke="none" d="
M453.045349,489.505035 
	C453.272705,491.195892 453.448242,493.312317 453.361328,495.688782 
	C453.063782,493.942780 453.028687,491.936676 453.045349,489.505035 
z" data-index="26"></path>
<path fill="#077EBC" opacity="1.000000" stroke="none" d="
M485.071350,462.625366 
	C485.211548,462.834839 484.757385,462.919098 484.757385,462.919098 
	C484.757385,462.919098 484.317169,462.779327 484.162109,462.608093 
	C484.315094,462.429901 484.623108,462.422913 485.071350,462.625366 
z" data-index="27"></path>

<path fill="#429B1B" opacity="1.000000" stroke="none" d="
M305.961914,573.040894 
	C305.947540,573.028992 306.091217,573.202087 306.091217,573.202087 
	C306.091217,573.202087 306.073853,572.953125 306.031921,573.025146 
	C305.990021,573.097168 305.976318,573.052734 305.961914,573.040894 
z" data-index="29" style="visibility: hidden;"></path>
<path fill="#FEFEFE" opacity="1.000000" stroke="none" d="
M488.097595,388.888489 
	C488.076416,392.949371 488.076416,396.600372 488.076416,400.382416 
	C494.234009,403.608429 502.285522,405.035919 501.604279,414.551453 
	C501.048492,422.314148 495.970093,425.723083 489.947845,427.007111 
	C488.394714,430.155029 487.137695,432.702789 485.880676,435.250519 
	C485.336182,435.045929 484.791687,434.841339 484.247192,434.636749 
	C483.957642,432.374420 483.668091,430.112091 483.416138,428.143677 
	C479.890961,426.328949 476.239288,425.046021 473.324066,422.805115 
	C469.193115,419.629700 470.082764,416.335205 474.675964,414.467133 
	C477.483154,417.000214 480.138519,419.396271 482.793854,421.792328 
	C483.255615,421.453735 483.717377,421.115112 484.179138,420.776520 
	C484.179138,418.823639 484.009674,416.852936 484.212524,414.921356 
	C484.718140,410.106995 484.073303,406.624176 478.404236,404.824738 
	C474.291443,403.519257 470.609467,400.307343 471.168121,394.871552 
	C471.990143,386.873108 475.022217,383.573242 483.686218,381.370605 
	C483.880859,379.562439 484.087341,377.644531 484.293518,375.729218 
	C489.865906,374.092010 488.082825,378.523926 488.635223,381.154449 
	C494.173096,382.184387 498.706696,384.560364 500.475189,390.792206 
	C498.861633,391.609131 497.149933,392.475769 495.554565,393.283539 
	C493.022308,391.268555 493.057526,385.940857 488.097595,388.888489 
M489.125458,408.802856 
	C488.650208,412.794983 488.174957,416.787140 487.699738,420.779297 
	C488.334930,421.100647 488.970123,421.421997 489.605316,421.743347 
	C491.148712,419.777863 493.955719,417.783173 493.911102,415.854431 
	C493.857056,413.517242 491.393066,411.235748 489.125458,408.802856 
M484.100952,390.995270 
	C483.940094,389.828461 483.779236,388.661652 483.618378,387.494843 
	C483.077179,387.315460 482.535950,387.136108 481.994720,386.956726 
	C480.776764,389.170319 478.701019,391.331482 478.561676,393.611023 
	C478.393921,396.355377 480.176300,398.876282 484.130310,398.840057 
	C484.130310,396.407013 484.130310,394.123840 484.100952,390.995270 
z" data-index="30"></path>
<path fill="#FEFEFE" opacity="1.000000" stroke="none" d="
M799.323486,532.143127 
	C791.021973,528.740784 786.983521,522.631042 787.178040,514.231079 
	C787.367249,506.060272 792.576416,499.343781 799.423462,497.180450 
	C807.150940,494.738953 815.568726,497.368256 820.293518,503.699188 
	C825.037048,510.055298 825.060913,518.913452 820.351807,525.469543 
	C815.538330,532.171143 807.911194,534.671570 799.323486,532.143127 
z" data-index="31"></path>
<path fill="#FEFEFE" opacity="1.000000" stroke="none" d="
M1104.841675,496.099060 
	C1113.236084,497.070984 1118.785767,501.052399 1121.202026,508.936340 
	C1123.380493,516.045044 1122.072632,522.489990 1116.939819,527.812195 
	C1111.899048,533.039124 1105.526489,534.339661 1098.677734,532.226990 
	C1091.615112,530.048279 1087.797729,524.874329 1086.952026,517.652832 
	C1085.480469,505.086639 1092.110474,497.009216 1104.841675,496.099060 
z" data-index="32"></path>
<path fill="#429B1B" opacity="1.000000" stroke="none" d="
M489.548645,408.866516 
	C491.393066,411.235748 493.857056,413.517242 493.911102,415.854431 
	C493.955719,417.783173 491.148712,419.777863 489.605316,421.743347 
	C488.970123,421.421997 488.334930,421.100647 487.699738,420.779297 
	C488.174957,416.787140 488.650208,412.794983 489.548645,408.866516 
z" data-index="33"></path>
<path fill="#429B1B" opacity="1.000000" stroke="none" d="
M484.115631,391.417969 
	C484.130310,394.123840 484.130310,396.407013 484.130310,398.840057 
	C480.176300,398.876282 478.393921,396.355377 478.561676,393.611023 
	C478.701019,391.331482 480.776764,389.170319 481.994720,386.956726 
	C482.535950,387.136108 483.077179,387.315460 483.618378,387.494843 
	C483.779236,388.661652 483.940094,389.828461 484.115631,391.417969 
z" data-index="34"></path>
</svg>